<?xml version="1.0" standalone="no"?>
<!DOCTYPE svg PUBLIC "-//W3C//DTD SVG 20010904//EN"
 "http://www.w3.org/TR/2001/REC-SVG-20010904/DTD/svg10.dtd">
<svg version="1.0" xmlns="http://www.w3.org/2000/svg"
 width="260.000000pt" height="260.000000pt" viewBox="0 0 260.000000 260.000000"
 preserveAspectRatio="xMidYMid meet">
<metadata>
Created by potrace 1.11, written by Peter Selinger 2001-2013
</metadata>
<g transform="translate(0.000000,260.000000) scale(0.100000,-0.100000)"
fill="#000000" stroke="none">
<path d="M1865 1984 c-231 -51 -412 -221 -483 -455 -63 -205 -46 -450 45 -638
80 -167 231 -288 413 -332 71 -17 240 -17 310 0 106 26 243 107 288 172 17 24
11 33 -86 138 l-69 74 -56 -46 c-153 -125 -368 -93 -476 70 -53 79 -75 170
-75 303 0 162 33 264 111 351 104 115 293 132 422 38 23 -16 45 -29 50 -29 10
0 171 179 171 190 0 24 -144 115 -235 149 -79 30 -231 37 -330 15z"/>
<path d="M730 1974 c-150 -23 -209 -44 -313 -112 -118 -77 -219 -226 -263
-387 -25 -92 -30 -313 -10 -412 54 -269 224 -455 471 -518 69 -18 231 -20 307
-4 83 17 192 74 255 133 l57 53 -33 39 c-19 22 -57 64 -86 95 l-51 56 -35 -29
c-19 -16 -62 -43 -97 -60 -58 -28 -69 -30 -145 -26 -62 3 -94 11 -132 30 -130
67 -205 219 -205 418 0 151 41 270 120 354 67 71 130 98 224 98 81 0 137 -18
203 -63 l47 -32 25 30 c14 17 52 60 85 97 l59 66 -28 23 c-146 118 -310 172
-455 151z"/>
</g>
</svg>
